<?xml version="1.0" encoding="utf-8"?>
<!-- Generator: Adobe Illustrator 21.1.0, SVG Export Plug-In . SVG Version: 6.00 Build 0)  -->
<svg version="1.1" id="Ebene_1" xmlns="http://www.w3.org/2000/svg" xmlns:xlink="http://www.w3.org/1999/xlink" x="0px" y="0px"
	 viewBox="0 0 341.3 104.6" style="enable-background:new 0 0 341.3 104.6;" xml:space="preserve">
<style type="text/css">
	.st0{clip-path:url(#SVGID_2_);fill:#B8200B;}
	.st1{fill:#575756;}
	.st2{clip-path:url(#SVGID_4_);}
	.st3{clip-path:url(#SVGID_4_);fill:#FFFFFF;}
</style>
<g>
	<defs>
		<rect id="SVGID_1_" x="9.7" y="10.9" width="354.6" height="93.7"/>
	</defs>
	<clipPath id="SVGID_2_">
		<use xlink:href="#SVGID_1_"  style="overflow:visible;"/>
	</clipPath>
	<path class="st0" d="M323.7,24.6c0,6.5-1.5,8.7-3.7,8.7c-2.2,0-3.7-2.2-3.7-8.7c0-6.4,1.5-8.7,3.7-8.7
		C322.1,15.9,323.7,18.2,323.7,24.6 M327.3,24.6c0-8.2-2.8-11.8-7.2-11.8c-4.3,0-7.5,3.5-7.5,11.8c0,8.2,2.8,11.8,7.2,11.8
		C324.1,36.4,327.3,32.9,327.3,24.6 M309.5,34.1c0-1.4-1-2.3-2.3-2.3s-2.3,0.9-2.3,2.3c0,1.4,0.9,2.3,2.3,2.3S309.5,35.5,309.5,34.1
		 M295.8,27.3h-5.6l5.6-8.7h0.1V27.3z M301.9,27.3h-2.6V13.2h-3l-9.7,14.4l0.2,2.7h9V36h3.4v-5.7h2.6V27.3z M268.8,33.3
		c-2.2,0-4-1.6-4-5.8c0-4.1,1.9-5.8,4.8-5.8c1.3,0,2.1,0.4,2.7,0.7v9.3C271.7,32.4,270.7,33.3,268.8,33.3 M261.1,27.7
		c0,5.7,2.8,8.6,6.5,8.6c3.2,0,4.4-1.7,4.8-2.3h0.1V36h3.3V10.9l-3.5,0.3v8.1c-0.6-0.4-1.6-0.7-3.1-0.7
		C265.1,18.7,261.1,21.5,261.1,27.7 M257.2,36V25.4c0-4.4-2-6.8-5.6-6.8c-2.8,0-4.4,1.5-5.1,2.3h-0.1v-1.9h-3.3V36h3.6V23.3
		c0.7-0.7,2-1.5,3.8-1.5c2.2,0,3.1,1.3,3.1,4.2v10H257.2z M231.7,33.5c-1.2,0-2.1-0.9-2.1-2.3c0-1.6,1.4-2.3,4.1-2.4l1.3-0.1v3.4
		C234.4,32.7,233.5,33.5,231.7,33.5 M226.1,31.5c0,2.9,1.9,4.9,4.7,4.9c2.6,0,3.8-1.3,4.4-2.3h0.1c0,0.7,0.1,1.4,0.1,1.9h3.3
		c-0.1-0.7-0.2-2.3-0.2-4v-6.5c0-4.7-2.1-6.8-5.9-6.8c-3.3,0-5.1,1.5-6,2.2l1.2,2.4c0.7-0.6,2.1-1.6,4.1-1.6c2.1,0,3.2,1.1,3.2,3.7
		v1h-1.1C229.5,26.4,226.1,28,226.1,31.5 M223.8,19.1h-4.5v-4.7h-3.2l-0.4,4.7l-2.3,0.4V22h2.3v8.3c0,4.3,1.5,6.1,5,6.1
		c1.8,0,2.8-0.6,3.1-0.7l-0.3-2.7c-0.3,0.1-1,0.4-1.9,0.4c-1.7,0-2.4-0.9-2.4-3.5V22h4.1L223.8,19.1z M210.6,20.2
		c-0.6-0.5-2-1.6-4.7-1.6c-3.3,0-5.7,1.9-5.7,4.6c0,2.5,1.3,3.9,3.7,5.1l1.1,0.6c1.8,1,2.7,1.4,2.7,2.8c0,0.9-1.1,1.6-2.9,1.6
		c-2,0-3.3-1-4-1.8l-1.2,3c0.8,0.7,2.3,1.8,5.2,1.8c4.2,0,6.2-2.1,6.2-5c0-2.6-1.5-4-4.2-5.3l-1.2-0.6c-1.7-0.8-2.4-1.4-2.4-2.5
		c0-0.8,0.8-1.5,2.5-1.5c1.8,0,3.1,1,3.6,1.4L210.6,20.2z M195,10.9l-3.5,0.3v20.3c0,3.5,1.5,4.7,4,4.7c1.4,0,2.3-0.4,2.6-0.6
		l-0.2-2.5c-0.2,0.1-0.6,0.2-1.2,0.2c-1.1,0-1.6-0.5-1.6-2.2V10.9z M181.1,21.5c1.8,0,2.9,1.3,2.9,3.4c0,0.3,0,0.6-0.1,1h-6.5
		C177.6,23,179.1,21.5,181.1,21.5 M187.2,25.3c0-4.3-2.2-6.7-5.8-6.7c-4,0-7.5,2.7-7.5,8.7c0,6.3,3,9,7.8,9c3.8,0,5.3-1.5,5.8-2
		l-0.9-2.5c-0.5,0.4-1.8,1.5-4.3,1.5c-2.9,0-4.7-1.5-4.9-5h9.5C187.1,27.6,187.2,26.6,187.2,25.3 M171.4,19.1h-4.5v-4.7h-3.1
		l-0.4,4.7l-2.3,0.4V22h2.3v8.3c0,4.3,1.5,6.1,5,6.1c1.8,0,2.8-0.6,3.1-0.7l-0.3-2.7c-0.3,0.1-1,0.4-1.9,0.4c-1.7,0-2.4-0.9-2.4-3.5
		V22h4.1L171.4,19.1z M159.2,19.1h-4.5v-4.7h-3.1l-0.4,4.7l-2.3,0.4V22h2.3v8.3c0,4.3,1.5,6.1,5,6.1c1.8,0,2.8-0.6,3.1-0.7l-0.3-2.7
		c-0.3,0.1-1,0.4-1.9,0.4c-1.7,0-2.4-0.9-2.4-3.5V22h4.1L159.2,19.1z M146,13.3c0-1.4-1-2.3-2.3-2.3s-2.2,0.9-2.2,2.3
		c0,1.4,0.9,2.2,2.2,2.2S146,14.6,146,13.3 M145.5,19.1h-3.6V36h3.6V19.1z M136.5,11.8h-3.8L125,30.6H125l-7.6-18.8h-4.2V36h3.6V20
		h0.1l6.5,16h2.9l6.4-16h0.1v16h3.7V11.8z"/>
	<path class="st0" d="M9.7,66.4V41.6c0,0,0.7-30.6,33.5-30.6H66c0,0,33.5,0.5,33.5,30.6V97H43.2C43.2,97,9.7,96.1,9.7,66.4"/>
</g>
<g>
	<path class="st1" d="M120,60.4l7.2,9.5h-3.6l-5.9-8.2h-1.5V70h-2.9V51.3h2.9v8h1.6l5.7-8h3.3L120,60.4z"/>
	<path class="st1" d="M133.7,70.3c-3.2,0-5.7-2.2-5.7-6.9c0-4.7,2.9-6.8,6-6.8c3.2,0,5.7,2.1,5.7,6.8
		C139.7,68.1,136.9,70.3,133.7,70.3z M133.9,59c-1.8,0-3.1,1.3-3.1,4.5c0,3.1,1.3,4.5,3.1,4.5c1.8,0,3.1-1.4,3.1-4.5
		C136.9,60.3,135.6,59,133.9,59z"/>
	<path class="st1" d="M145.3,58.4L145.3,58.4c0.6-0.6,1.8-1.8,3.9-1.8c1.5,0,2.7,0.6,3.3,1.9c0.7-0.8,2-1.9,4-1.9
		c2.9,0,4.4,1.8,4.4,5.2V70h-2.7v-7.7c0-2.3-0.8-3.3-2.5-3.3c-1.3,0-2.2,0.7-2.7,1.2c0.1,0.5,0.1,1.1,0.1,1.7V70h-2.7v-7.7
		c0-2.3-0.6-3.3-2.1-3.3c-1.5,0-2.4,0.7-2.9,1.2V70h-2.8v-13h2.5V58.4z"/>
	<path class="st1" d="M169.8,70.2c-1.1,0-1.9-0.2-2.4-0.5v5.6h-2.8V56.9h2.5v1.5h0.1c0.4-0.5,1.5-1.8,3.8-1.8c3,0,4.9,2.1,4.9,6.5
		C176,68,173.3,70.2,169.8,70.2z M167.4,60.1v7.3c0.5,0.3,1.1,0.6,2,0.6c2.4,0,3.7-1.3,3.7-4.6c0-3.1-1.2-4.3-3.1-4.3
		C168.7,59,167.8,59.6,167.4,60.1z"/>
	<path class="st1" d="M188.4,64.1h-7.3c0.2,2.7,1.5,3.8,3.8,3.8c1.9,0,2.9-0.9,3.3-1.2l0.7,1.9c-0.4,0.4-1.5,1.6-4.5,1.6
		c-3.6,0-6-2.1-6-7c0-4.6,2.7-6.7,5.8-6.7c2.8,0,4.5,1.8,4.5,5.2C188.7,62.8,188.6,63.5,188.4,64.1z M181.1,62.2h5
		c0.1-0.3,0.1-0.5,0.1-0.8c0-1.6-0.8-2.6-2.2-2.6C182.4,58.8,181.2,60,181.1,62.2z"/>
	<path class="st1" d="M198.5,59.2h-3.2v6.1c0,2,0.5,2.7,1.8,2.7c0.7,0,1.2-0.2,1.5-0.3l0.2,2.1c-0.2,0.1-1,0.6-2.4,0.6
		c-2.7,0-3.9-1.4-3.9-4.7v-6.4h-1.8v-1.9l1.8-0.3l0.3-3.6h2.4v3.6h3.5L198.5,59.2z"/>
	<path class="st1" d="M210.7,64.1h-7.3c0.2,2.7,1.5,3.8,3.8,3.8c1.9,0,2.9-0.9,3.3-1.2l0.7,1.9c-0.4,0.4-1.5,1.6-4.5,1.6
		c-3.6,0-6-2.1-6-7c0-4.6,2.7-6.7,5.8-6.7c2.8,0,4.5,1.8,4.5,5.2C210.9,62.8,210.8,63.5,210.7,64.1z M203.4,62.2h5
		c0.1-0.3,0.1-0.5,0.1-0.8c0-1.6-0.8-2.6-2.2-2.6C204.7,58.8,203.5,60,203.4,62.2z"/>
	<path class="st1" d="M222.3,70v-7.7c0-2.2-0.7-3.3-2.4-3.3c-1.4,0-2.4,0.7-2.9,1.2V70h-2.8v-13h2.5v1.5h0.1
		c0.5-0.6,1.7-1.8,3.9-1.8c2.8,0,4.3,1.8,4.3,5.2V70H222.3z"/>
	<path class="st1" d="M237.1,58.6l-5.8,9.1v0.1h6.2l-0.2,2.2h-9.6v-1.7l5.9-9.1v-0.1h-5.5v-2.2h9V58.6z"/>
	<path class="st1" d="M248.9,58.6l-5.8,9.1v0.1h6.2L249,70h-9.6v-1.7l5.9-9.1v-0.1h-5.5v-2.2h9V58.6z"/>
	<path class="st1" d="M261.4,64.1h-7.3c0.2,2.7,1.5,3.8,3.8,3.8c1.9,0,2.9-0.9,3.3-1.2l0.7,1.9c-0.4,0.4-1.5,1.6-4.5,1.6
		c-3.6,0-6-2.1-6-7c0-4.6,2.7-6.7,5.8-6.7c2.8,0,4.5,1.8,4.5,5.2C261.7,62.8,261.5,63.5,261.4,64.1z M254.1,62.2h5
		c0.1-0.3,0.1-0.5,0.1-0.8c0-1.6-0.8-2.6-2.2-2.6C255.4,58.8,254.2,60,254.1,62.2z"/>
	<path class="st1" d="M273,70v-7.7c0-2.2-0.7-3.3-2.4-3.3c-1.4,0-2.4,0.7-2.9,1.2V70h-2.8v-13h2.5v1.5h0.1c0.5-0.6,1.7-1.8,3.9-1.8
		c2.8,0,4.3,1.8,4.3,5.2V70H273z"/>
	<path class="st1" d="M285.9,59.2h-3.2v6.1c0,2,0.5,2.7,1.8,2.7c0.7,0,1.2-0.2,1.5-0.3l0.2,2.1c-0.2,0.1-1,0.6-2.4,0.6
		c-2.7,0-3.9-1.4-3.9-4.7v-6.4h-1.8v-1.9l1.8-0.3l0.3-3.6h2.4v3.6h3.5L285.9,59.2z"/>
	<path class="st1" d="M295.6,59.3c-0.1-0.1-0.5-0.2-1.1-0.2c-1.6,0-2.5,0.9-2.9,1.6V70h-2.8v-13h2.5v1.9h0.1
		c0.5-1.1,1.4-2.1,3.3-2.1c0.5,0,0.9,0.1,1.1,0.2L295.6,59.3z"/>
	<path class="st1" d="M308.7,70h-2.5v-1.5h-0.1c-0.5,0.5-1.5,1.8-3.9,1.8c-2.8,0-4.2-1.7-4.2-5.2v-8.2h2.8v7.7
		c0,2.3,0.7,3.3,2.3,3.3c1.5,0,2.3-0.6,2.9-1.2v-9.8h2.8V70z"/>
	<path class="st1" d="M315,58.4L315,58.4c0.6-0.6,1.8-1.8,3.9-1.8c1.5,0,2.7,0.6,3.3,1.9c0.7-0.8,2-1.9,4-1.9c2.9,0,4.4,1.8,4.4,5.2
		V70h-2.7v-7.7c0-2.3-0.8-3.3-2.5-3.3c-1.3,0-2.2,0.7-2.7,1.2c0.1,0.5,0.1,1.1,0.1,1.7V70h-2.7v-7.7c0-2.3-0.6-3.3-2.1-3.3
		c-1.5,0-2.4,0.7-2.9,1.2V70h-2.8v-13h2.5V58.4z"/>
</g>
<g>
	<defs>
		<rect id="SVGID_3_" x="9.7" y="10.9" width="354.6" height="93.7"/>
	</defs>
	<clipPath id="SVGID_4_">
		<use xlink:href="#SVGID_3_"  style="overflow:visible;"/>
	</clipPath>
	<g class="st2">
		<path class="st1" d="M116.1,78.3v16.2h7.7l-0.2,2.4h-10.4V78.3H116.1z"/>
		<path class="st1" d="M127.5,81.2c-1,0-1.7-0.7-1.7-1.7c0-1.1,0.7-1.8,1.7-1.8c1,0,1.8,0.7,1.8,1.8
			C129.2,80.5,128.5,81.2,127.5,81.2z M128.8,97h-2.8v-13h2.8V97z"/>
		<path class="st1" d="M140.6,97v-7.7c0-2.2-0.7-3.3-2.4-3.3c-1.4,0-2.4,0.7-2.9,1.2V97h-2.8v-13h2.5v1.5h0.1
			c0.5-0.6,1.7-1.8,3.9-1.8c2.8,0,4.3,1.8,4.3,5.2V97H140.6z"/>
		<path class="st1" d="M157.7,85.8h-1.8c0.4,0.6,0.6,1.4,0.6,2.2c0,2.9-2.2,4.4-5.2,4.4c-0.4,0-0.8,0-1.2-0.1
			c-0.4,0.2-0.8,0.6-0.8,1.1c0,0.5,0.4,0.9,1.2,0.9h2.7c2.8,0,4.4,1.1,4.4,3.5c0,2.6-2.4,4.9-7.1,4.9c-3.2,0-5-1.2-5-3.5
			c0-1.9,1.4-2.7,2.2-3.1V96c-0.5-0.4-0.8-1.1-0.8-1.8c0-1.4,1.2-2.1,1.6-2.3v-0.1c-1.3-0.7-2.2-1.9-2.2-3.8c0-3,2.3-4.4,5.1-4.4
			c0.7,0,1.4,0.1,2,0.3h4.5L157.7,85.8z M149.1,96.6c-0.5,0.4-1.1,0.9-1.1,2c0,1.4,0.9,2,2.8,2c2.9,0,4.2-1.1,4.2-2.3
			c0-1.1-0.6-1.5-2-1.5h-2.8C149.8,96.7,149.5,96.7,149.1,96.6z M151.5,85.6c-1.3,0-2.6,0.7-2.6,2.4s1.2,2.3,2.5,2.3
			c1.3,0,2.5-0.6,2.5-2.3S152.8,85.6,151.5,85.6z"/>
		<path class="st1" d="M169.8,91.1h-7.3c0.2,2.7,1.5,3.8,3.8,3.8c1.9,0,2.9-0.9,3.3-1.2l0.7,1.9c-0.4,0.4-1.5,1.6-4.5,1.6
			c-3.6,0-6-2.1-6-7c0-4.6,2.7-6.7,5.8-6.7c2.8,0,4.5,1.8,4.5,5.2C170,89.8,169.9,90.5,169.8,91.1z M162.4,89.2h5
			c0.1-0.3,0.1-0.5,0.1-0.8c0-1.6-0.8-2.6-2.2-2.6C163.7,85.8,162.6,87,162.4,89.2z"/>
		<path class="st1" d="M181.3,97v-7.7c0-2.2-0.7-3.3-2.4-3.3c-1.4,0-2.4,0.7-2.9,1.2V97h-2.8v-13h2.5v1.5h0.1
			c0.5-0.6,1.7-1.8,3.9-1.8c2.8,0,4.3,1.8,4.3,5.2V97H181.3z"/>
	</g>
	<path class="st3" d="M34,34.9c6.7-6.7,15.5-9.9,24.4-9.7l-0.1-5c-10.2-0.2-20.3,3.5-28,11.1C22.8,38.9,19.1,49,19.3,59.1l5.1,0.1
		C24.2,50.3,27.4,41.5,34,34.9"/>
	<path class="st3" d="M38.3,39.2c-5.5,5.5-8.2,12.8-8,20.1l5.4,0.1c-0.1-6,2-11.9,6.5-16.4c4.5-4.5,10.4-6.6,16.4-6.5l-0.1-5.4
		C51.2,31,43.9,33.6,38.3,39.2"/>
	<path class="st3" d="M47,47.8c-3.2,3.2-4.7,7.5-4.6,11.7l5.4,0.1c-0.1-2.9,0.9-5.8,3.1-8c2.2-2.2,5.1-3.2,7.9-3.1l-0.1-5.4
		C54.4,43,50.2,44.6,47,47.8"/>
	<path class="st3" d="M74.1,78.2c-3.5,0-6.3-2.9-6.3-6.4c0-3.5,2.8-6.4,6.3-6.4c3.5,0,6.3,2.9,6.3,6.4
		C80.4,75.3,77.6,78.2,74.1,78.2 M93,74.3v-5.1l-6.5-1.5c-0.2-0.7-0.5-1.4-0.8-2l3.6-5.7l-3.6-3.6L80.1,60c-0.6-0.3-1.3-0.6-2-0.8
		l-1.4-6.6h-5l-1.4,6.6c-0.7,0.2-1.4,0.5-2,0.8l-5.6-3.6L59,60l3.6,5.7c-0.3,0.7-0.6,1.3-0.8,2l-6.5,1.5v5.1l6.5,1.5
		c0.2,0.7,0.5,1.4,0.8,2L59,83.5l3.6,3.6l5.6-3.6c0.6,0.3,1.3,0.6,2,0.8l1.4,6.6h5l1.4-6.6c0.7-0.2,1.4-0.5,2-0.8l5.6,3.6l3.6-3.6
		l-3.6-5.7c0.3-0.7,0.6-1.3,0.8-2L93,74.3z"/>
</g>
</svg>
